<?xml version="1.0" encoding="iso-8859-1"?>
<!-- Generator: Adobe Illustrator 19.0.0, SVG Export Plug-In . SVG Version: 6.00 Build 0)  -->
<svg version="1.1" id="Layer_1" xmlns="http://www.w3.org/2000/svg" xmlns:xlink="http://www.w3.org/1999/xlink" x="0px" y="0px"
	 viewBox="0 0 511.999 511.999" style="enable-background:new 0 0 511.999 511.999;" xml:space="preserve">
<g>
	<g>
		<path d="M191.935,102.791H91.502c-4.782,0-8.658,3.877-8.658,8.658s3.877,8.658,8.658,8.658h100.433
			c4.782,0,8.658-3.877,8.658-8.658S196.716,102.791,191.935,102.791z"/>
	</g>
</g>
<g>
	<g>
		<path d="M191.935,139.5H91.502c-4.782,0-8.658,3.877-8.658,8.658s3.877,8.658,8.658,8.658h100.433
			c4.782,0,8.658-3.877,8.658-8.658S196.716,139.5,191.935,139.5z"/>
	</g>
</g>
<g>
	<g>
		<path d="M191.935,176.211H91.502c-4.782,0-8.658,3.877-8.658,8.658s3.877,8.658,8.658,8.658h100.433
			c4.782,0,8.658-3.877,8.658-8.658S196.716,176.211,191.935,176.211z"/>
	</g>
</g>
<g>
	<g>
		<path d="M191.935,212.92H91.502c-4.782,0-8.658,3.877-8.658,8.658s3.877,8.658,8.658,8.658h100.433
			c4.782,0,8.658-3.877,8.658-8.658S196.716,212.92,191.935,212.92z"/>
	</g>
</g>
<g>
	<g>
		<path d="M191.935,249.629H91.502c-4.782,0-8.658,3.877-8.658,8.658c0,4.782,3.877,8.658,8.658,8.658h100.433
			c4.782,0,8.658-3.877,8.658-8.658C200.593,253.506,196.716,249.629,191.935,249.629z"/>
	</g>
</g>
<g>
	<g>
		<path d="M191.935,286.34H91.502c-4.782,0-8.658,3.877-8.658,8.658s3.877,8.658,8.658,8.658h100.433
			c4.782,0,8.658-3.877,8.658-8.658S196.716,286.34,191.935,286.34z"/>
	</g>
</g>
<g>
	<g>
		<path d="M420.505,102.791H320.072c-4.782,0-8.658,3.877-8.658,8.658s3.877,8.658,8.658,8.658h100.433
			c4.782,0,8.658-3.877,8.658-8.658S425.287,102.791,420.505,102.791z"/>
	</g>
</g>
<g>
	<g>
		<path d="M420.505,139.5H320.072c-4.782,0-8.658,3.877-8.658,8.658s3.877,8.658,8.658,8.658h100.433
			c4.782,0,8.658-3.877,8.658-8.658S425.287,139.5,420.505,139.5z"/>
	</g>
</g>
<g>
	<g>
		<path d="M420.505,176.211H320.072c-4.782,0-8.658,3.877-8.658,8.658s3.877,8.658,8.658,8.658h100.433
			c4.782,0,8.658-3.877,8.658-8.658S425.287,176.211,420.505,176.211z"/>
	</g>
</g>
<g>
	<g>
		<path d="M420.505,212.92H320.072c-4.782,0-8.658,3.877-8.658,8.658s3.877,8.658,8.658,8.658h100.433
			c4.782,0,8.658-3.877,8.658-8.658S425.287,212.92,420.505,212.92z"/>
	</g>
</g>
<g>
	<g>
		<path d="M420.505,249.629H320.072c-4.782,0-8.658,3.877-8.658,8.658c0,4.782,3.877,8.658,8.658,8.658h100.433
			c4.782,0,8.658-3.877,8.658-8.658C429.163,253.506,425.287,249.629,420.505,249.629z"/>
	</g>
</g>
<g>
	<g>
		<path d="M420.505,286.34H320.072c-4.782,0-8.658,3.877-8.658,8.658s3.877,8.658,8.658,8.658h100.433
			c4.782,0,8.658-3.877,8.658-8.658S425.287,286.34,420.505,286.34z"/>
	</g>
</g>
<g>
	<g>
		<path d="M492.074,76.811h-10.375V50.768c0-4.782-3.877-8.658-8.658-8.658H286.346c-12.246,0-23.187,5.679-30.342,14.536
			c-7.155-8.857-18.096-14.536-30.343-14.536H38.966c-4.782,0-8.658,3.877-8.658,8.658v26.043H19.926C8.939,76.811,0,85.75,0,96.737
			v304.741c0,10.987,8.939,19.926,19.926,19.926h317.64v39.827c0,3.126,1.685,6.01,4.409,7.544c1.321,0.743,2.786,1.114,4.25,1.114
			c1.556,0,3.11-0.419,4.487-1.254l24.084-14.597l24.083,14.597c2.674,1.621,6.014,1.673,8.737,0.14
			c2.723-1.534,4.409-4.418,4.409-7.544v-39.827h80.049c10.987,0,19.926-8.939,19.926-19.926V96.737
			C512,85.75,503.061,76.811,492.074,76.811z M264.662,81.11c0-11.957,9.727-21.684,21.684-21.684h178.036v280.532h-199.72V81.11z
			 M47.625,59.426h178.036c11.957,0,21.684,9.727,21.684,21.684v258.848H47.625V59.426z M47.625,357.275h199.72v17.376H47.625
			C47.625,374.651,47.625,357.275,47.625,357.275z M210.113,404.087H19.926c-1.438,0-2.609-1.171-2.609-2.609V96.737
			c0-1.438,1.171-2.609,2.609-2.609h10.382v289.181c0,4.782,3.877,8.658,8.658,8.658h171.147V404.087z M284.572,404.087H227.43
			v-12.119h57.142V404.087z M337.567,404.087h-35.678v-12.119h35.678V404.087z M394.71,445.858h-0.001l-15.425-9.349
			c-2.758-1.672-6.217-1.672-8.975,0l-15.426,9.349v-53.891h39.826V445.858z M264.662,374.651v-17.376h199.72v17.376H264.662z
			 M494.683,401.478c0,1.438-1.171,2.609-2.609,2.609h-80.049v-12.119h61.015c4.782,0,8.658-3.877,8.658-8.658V94.128h10.375
			c1.438,0,2.609,1.171,2.609,2.609V401.478z"/>
	</g>
</g>
<g>
</g>
<g>
</g>
<g>
</g>
<g>
</g>
<g>
</g>
<g>
</g>
<g>
</g>
<g>
</g>
<g>
</g>
<g>
</g>
<g>
</g>
<g>
</g>
<g>
</g>
<g>
</g>
<g>
</g>
</svg>
